<svg version="1.1" xmlns="http://www.w3.org/2000/svg" xmlns:xlink="http://www.w3.org/1999/xlink" width="482" height="365" viewBox="0,0,482,365"><g transform="translate(0.5,2.5)"><g data-paper-data="{&quot;isPaintingLayer&quot;:true}" fill-rule="nonzero" stroke-linecap="butt" stroke-linejoin="miter" stroke-miterlimit="10" stroke-dasharray="" stroke-dashoffset="0" style="mix-blend-mode: normal"><path d="M0.5,361.5v-363h479v363z" fill="#ff00f0" stroke="#000000" stroke-width="2"/><path d="M0.5,360.5v-62h480v62z" fill="#000000" stroke="#000000" stroke-width="2"/><path d="M71.5,33c0,19.05382 -15.89389,34.5 -35.5,34.5c-19.60611,0 -35.5,-15.44618 -35.5,-34.5c0,-19.05382 15.89389,-34.5 35.5,-34.5c19.60611,0 35.5,15.44618 35.5,34.5z" fill="#000000" stroke="#000000" stroke-width="2"/><path d="M64.75969,185.13777c-2.81325,2.1864 -4.859,4.86303 -7.32634,7.9472c-1.66278,2.07847 -4.70919,4.50942 -5.54062,7.13949c-0.30143,0.95349 0.31921,2.05231 0,3c-0.67943,2.0171 -2.65816,3.56434 -2.92501,5.676c-0.2758,2.18251 0.03228,4.39967 0.03228,6.59955c0,2.19551 -0.77871,6.20737 -0.10727,8.27554c0.35287,1.08691 2.25952,2.87176 3.06905,3.69635c3.12107,1.53528 5.89003,3.69025 9.2372,4.62781c3.76098,1.05346 7.88143,2.28766 11.69683,2.93183c1.09435,0.18476 2.27409,-0.27015 3.32865,0.07574c1.14199,0.37456 1.86182,1.61399 3,2c0.84507,0.28661 1.80168,-0.25346 2.676,-0.07499c0.74273,0.1516 1.27134,1.11447 2.02517,1.0346c0.51693,-0.05477 0.47006,-0.93849 0.80662,-1.33464c0.92794,-1.09225 1.695,-2.33346 2.30004,-3.63269c0.15298,-0.32849 1.05829,-0.7779 0.69996,-0.83178c-0.63461,-0.09544 -1.18197,0.81252 -1.80662,0.66536c-1.57997,-0.37223 -2.8888,-1.48765 -4.38233,-2.12342c-2.20352,-0.93801 -4.67558,-1.10486 -6.91066,-1.96498c-4.1255,-1.58761 -6.68825,-4.36353 -10.59441,-6.31661c-0.88829,-0.9046 -2.00904,-1.62876 -2.66485,-2.71377c-1.66898,-2.76126 -1.36051,-4.36364 -1.37338,-7.31433c-0.02206,-5.05837 -0.82211,-10.73385 4.03822,-14.02811c1.50299,-1.01871 3.14954,-1.87909 4.88739,-2.40501c1.01268,-0.30647 2.11591,-0.02793 3.17393,-0.0346c0.45745,-0.00288 1.23712,0.44296 1.37235,0.00595c0.32349,-1.04543 -0.64111,-2.20386 -0.36463,-3.26269c0.30366,-1.16286 1.59413,-1.86875 2,-3c0.93255,-2.59927 -0.59135,-6.47762 -0.10727,-9.27554c0.08146,-0.4708 0.90001,-0.78487 0.73224,-1.23224c-0.1369,-0.36505 -0.55976,0.58199 -0.92678,0.7135c-1.19797,0.42927 -2.45828,0.66172 -3.69912,0.94409c-0.35541,0.08087 -0.73243,0.10711 -1.10989,0.13047c-0.25826,1.12017 -1.37841,1.68025 -1.37841,1.68025c-0.74558,0.36542 -1.43842,0.75298 -2.08888,1.16196c-0.13904,0.22584 -0.3027,0.42863 -0.51168,0.58873c-0.37882,0.29021 -0.80696,0.49114 -1.25779,0.651zM57.21587,185.51817c-1.00339,-2.16949 1.1661,-3.25424 1.1661,-3.25424l2.32746,-1.13564c0.45804,-0.12393 0.97376,-0.13778 1.44255,-0.24119c0.41784,-0.31364 0.84977,-0.61937 1.29845,-0.91737c0.54793,-0.83835 0.77503,-1.97736 1.60946,-2.51327c1.41005,-0.90559 3.21464,-0.94972 4.83378,-1.38181c2.10608,-0.56204 7.29664,-2.30386 9.37411,-0.34241c1.16912,1.10384 0.58134,3.16697 0.73224,4.76776c0.27417,2.90849 0.75733,7.96543 -0.10727,10.72446c-0.3594,1.14685 -1.64874,1.85063 -2,3c-0.46289,1.51462 0.57775,3.46442 -0.36463,4.73731c-2.89475,3.91006 -4.40195,1.16949 -7.45372,1.97135c-6.09733,1.60208 -5.05004,6.58954 -5.07438,11.56688c-0.01354,2.76739 -0.05441,4.0296 1.96178,5.97189c2.14993,1.07497 4.01362,2.64647 6,4c3.22057,2.19451 7.00919,2.21409 10.49493,3.71841c1.24728,0.53828 2.32588,1.45619 3.61767,1.87658c1.34581,0.43796 3.28383,-0.41896 4.19338,0.66536c3.00621,3.58386 -0.45472,9.18895 -3,11.53553c-1.0194,0.93982 -1.84429,2.34542 -3.19338,2.66536c-1.32667,0.31462 -2.62502,-0.77299 -3.97483,-0.9654c-1.09719,-0.1564 -2.27096,0.27053 -3.324,-0.07499c-1.14195,-0.37469 -1.86187,-1.61384 -3,-2c-0.84358,-0.28622 -1.7925,0.2212 -2.67135,0.07574c-3.99103,-0.66057 -8.39411,-1.93256 -12.30317,-3.06817c-3.93127,-1.14207 -7.12201,-3.52523 -10.7628,-5.37219c-1.90837,-1.8864 -4.02019,-3.61217 -4.93095,-6.30365c-0.84627,-2.5009 -0.10727,-7.04748 -0.10727,-9.72446c0,-0.95962 -0.00733,-7.14465 0.03228,-7.40045c0.35874,-2.31637 2.3417,-4.09767 3.07499,-6.324c0.31283,-0.9498 -0.32793,-2.0553 0,-3c1.17449,-3.38354 4.30031,-6.16168 6.45938,-8.86051c1.26287,-1.57859 2.44138,-3.04144 3.64922,-4.39686z" fill="#000000" stroke="none" stroke-width="0.5"/><path d="M66.01295,184.43697c0.20897,-0.1601 0.37376,-0.36298 0.51281,-0.58882c0.65045,-0.40898 1.34748,-0.79665 2.09305,-1.16208c0,0 1.12261,-0.55999 1.38086,-1.68015c0.37746,-0.02336 0.75645,-0.04942 1.11186,-0.1303c1.24084,-0.28236 2.50717,-0.51381 3.70514,-0.94308c0.36702,-0.13152 0.79106,-1.07826 0.92797,-0.71322c0.16778,0.44736 -0.65146,0.76127 -0.73291,1.23207c-0.48408,2.79792 1.04526,6.67791 0.11271,9.27718c-0.40587,1.13125 -1.69877,1.83633 -2.00243,2.99918c-0.27649,1.05883 0.69263,2.21889 0.36915,3.26432c-0.13523,0.43701 -0.94889,0.0851 -1.40633,0.08798c-1.05801,0.00667 -2.14933,-0.26973 -3.16201,0.03674c-1.73785,0.52593 -3.36256,1.38263 -4.86555,2.40133c-4.86033,3.29426 -4.03409,8.90219 -4.01202,13.96056c0.01287,2.95069 -0.31475,4.53173 1.35424,7.29299c0.65581,1.08501 1.76487,1.80395 2.65315,2.70854c3.90615,1.95308 6.4394,4.72922 10.56489,6.31683c2.23507,0.86013 4.6965,1.03178 6.90003,1.96978c1.49353,0.63577 2.79867,1.75364 4.37864,2.12587c0.62465,0.14716 1.16962,-0.75894 1.80423,-0.6635c0.35833,0.05389 -0.48467,0.58149 -0.63765,0.90998c-0.60505,1.29923 -1.37725,2.54391 -2.30519,3.63616c-0.33656,0.39615 -0.29148,1.28088 -0.80841,1.33565c-0.75383,0.07987 -1.28427,-0.88206 -2.027,-1.03367c-0.87432,-0.17847 -1.8346,0.36319 -2.67967,0.07658c-1.13818,-0.38601 -1.86156,-1.62421 -3.00355,-1.99878c-1.05456,-0.34589 -2.24005,0.1104 -3.3344,-0.07437c-3.8154,-0.64417 -7.95891,-1.8797 -11.71988,-2.93316c-3.34716,-0.93756 -6.13446,-3.10256 -9.25553,-4.63785c-0.80953,-0.82459 -2.72287,-2.61646 -3.07574,-3.70337c-0.67144,-2.06817 0.09954,-6.09404 0.09954,-8.28955c0,-2.19987 -0.311,-4.43316 -0.03519,-6.61567c0.26685,-2.11166 2.24811,-3.67532 2.92754,-5.69241c0.31921,-0.94769 -0.29841,-2.05368 0.00301,-3.00717c0.83143,-2.63007 3.8938,-5.07921 5.55658,-7.15769c2.46734,-3.08417 4.53431,-5.7692 7.34756,-7.95559c0.45083,-0.15986 0.88172,-0.36111 1.26054,-0.65133z" data-paper-data="{&quot;noHover&quot;:false,&quot;origItem&quot;:[&quot;Path&quot;,{&quot;applyMatrix&quot;:true,&quot;segments&quot;:[[[64.75969,185.13777],[0.45083,-0.15986],[-2.81325,2.1864]],[[57.43336,193.08497],[2.46734,-3.08417],[-1.66278,2.07847]],[[51.89273,200.22446],[0.83143,-2.63007],[-0.30143,0.95349]],[[51.89273,203.22446],[0.31921,-0.94769],[-0.67943,2.0171]],[[48.96772,208.90046],[0.26685,-2.11166],[-0.2758,2.18251]],[[49,215.5],[0,-2.19987],[0,2.19551]],[[48.89273,223.77554],[-0.67144,-2.06817],[0.35287,1.08691]],[[51.96178,227.4719],[-0.80953,-0.82459],[3.12107,1.53528]],[[61.19897,232.0997],[-3.34716,-0.93756],[3.76098,1.05346]],[[72.89581,235.03153],[-3.8154,-0.64417],[1.09435,0.18476]],[[76.22446,235.10727],[-1.05456,-0.34589],[1.14199,0.37456]],[[79.22446,237.10727],[-1.13818,-0.38601],[0.84507,0.28661]],[[81.90045,237.03228],[-0.87432,-0.17847],[0.74273,0.1516]],[[83.92562,238.06688],[-0.75383,0.07987],[0.51693,-0.05477]],[[84.73224,236.73224],[-0.33656,0.39615],[0.92794,-1.09225]],[[87.03228,233.09955],[-0.60505,1.29923],[0.15298,-0.32849]],[[87.73224,232.26777],[0.35833,0.05389],[-0.63461,-0.09544]],[[85.92562,232.93312],[0.62465,0.14716],[-1.57997,-0.37223]],[[81.54329,230.8097],[1.49353,0.63577],[-2.20352,-0.93801]],[[74.63263,228.84472],[2.23507,0.86013],[-4.1255,-1.58761]],[[64.03823,222.52811],[3.90615,1.95308],[-0.88829,-0.9046]],[[61.37338,219.81433],[0.65581,1.08501],[-1.66898,-2.76126]],[[60,212.5],[0.01287,2.95069],[-0.02206,-5.05837]],[[64.03823,198.4719],[-4.86033,3.29426],[1.50299,-1.01871]],[[68.92562,196.06688],[-1.73785,0.52593],[1.01268,-0.30647]],[[72.09955,196.03228],[-1.05801,0.00667],[0.45745,-0.00288]],[[73.4719,196.03823],[-0.13523,0.43701],[0.32349,-1.04543]],[[73.10727,192.77554],[-0.27649,1.05883],[0.30366,-1.16286]],[[75.10727,189.77554],[-0.40587,1.13125],[0.93255,-2.59927]],[[75,180.5],[-0.48408,2.79792],[0.08146,-0.4708]],[[75.73224,179.26777],[0.16778,0.44736],[-0.1369,-0.36505]],[[74.80546,179.98127],[0.36702,-0.13152],[-1.19797,0.42927]],[[71.10634,180.92536],[1.24084,-0.28236],[-0.35541,0.08087]],[[69.99645,181.05582],[0.37746,-0.02336],[-0.25826,1.12017]],[[68.61804,182.73607],[0,0],[-0.74558,0.36542]],[[66.52916,183.89804],[0.65045,-0.40898],[-0.13904,0.22584]],[[66.01748,184.48677],[0.20897,-0.1601],[-0.37882,0.29021]]],&quot;closed&quot;:true}]}" fill="#fbff00" stroke="none" stroke-width="0.5"/><path d="M127.91849,227.48823c-0.49691,-0.35658 -0.91849,-0.96162 -0.91849,-1.98823c0,-1.68387 1.13417,-2.23358 1.87468,-2.41303c-0.67995,-1.55528 -1.28025,-3.16942 -1.77273,-4.88036c-1.34621,-4.67684 -1.10194,-8.88015 -1.10194,-13.70662c0,-9.89808 0.90897,-19.05794 9.15063,-25.92442c0.88526,-0.73755 2.18635,-0.75706 3.20388,-1.2977c1.07674,-0.57211 1.9484,-1.49498 3.04711,-2.02366c3.60919,-1.73668 7.24361,-1.25421 11.09838,-1.25421c1.33714,0 8.14017,-0.00452 8.34675,0.02416c2.68801,0.37322 5.19498,1.71504 7.89506,1.98756c4.66518,0.47085 9.33655,2.1298 13.26635,5.00997c0.98318,0.72058 1.52204,1.90705 2.34796,2.80356c4.60492,4.99848 8.29471,10.01212 11.49067,16.04981c0.7047,1.33128 1.71235,2.55173 2.07719,4.01317c1.58359,6.34328 -0.56182,13.16596 -3.16374,18.68008c-0.52301,1.10839 -0.5017,2.49713 -1.27348,3.44918c-0.50902,0.62791 -5.13771,3.55351 -6.219,4.25028c-2.56075,3.84112 -4.75634,4.52149 -8.66939,6.47802c-2.21596,1.10798 -4.25819,2.79085 -6.69792,3.22193c-1.78766,0.31586 -3.7868,-0.89964 -5.44375,-0.15802c-0.86055,0.38516 -1.10071,1.71686 -2,2c-3.53892,1.11422 -4.56105,-0.28138 -7.65125,0.17157c-5.24659,0.76903 -11.42482,2.48548 -16.53721,-0.30577c-1.31945,-0.72039 -2.00539,-2.27552 -3.23003,-3.14739c-3.54972,-2.52721 -7.47495,-3.43357 -8.93095,-8.30365c-0.26323,-0.88045 -0.24367,-1.80555 -0.18878,-2.73623zM139.88702,234.41906c0.02515,0.01753 0.05007,0.03514 0.07476,0.05283c1.07725,0.77215 1.63694,2.16491 2.76997,2.85261c0.89793,0.545 2.02853,0.58992 3.07371,0.69423c3.86187,0.38543 6.65495,-0.47928 10.38908,-1c2.09673,-0.29239 4.35613,0.88659 6.34875,0.17157c0.88741,-0.31843 1.11512,-1.67463 2,-2c2.23218,-0.82078 4.33624,0.17976 6.55625,-0.15802c2.78892,-0.42434 2.59513,-1.4246 5.30208,-2.77807c3.8471,-1.92355 4.78307,-1.70067 7.33061,-5.52198c1.89587,-1.29663 4.36393,-1.94209 5.781,-3.74972c0.54545,-0.69577 0.36623,-1.74347 0.72652,-2.55082c2.0539,-4.60241 4.15928,-9.99825 2.83626,-15.31992c-0.6577,-2.6455 -2.54181,-4.82653 -3.94521,-7.16357c-2.44235,-4.06717 -5.3371,-7.3011 -8.48693,-10.77346c-0.64062,-0.70622 -0.99186,-1.69207 -1.76349,-2.25217c-3.15668,-2.29134 -6.94045,-3.56104 -10.62219,-3.93431c-2.76949,-0.28078 -5.34868,-1.62266 -8.10494,-2.01244c-2.52596,-0.35721 -5.10215,0.02416 -7.65325,0.02416c-2.91366,0 -6.20834,-0.6659 -8.90162,0.74579c-1.04904,0.54986 -1.90275,1.42857 -2.95289,1.97634c-0.79834,0.41643 -1.85753,0.31707 -2.54917,0.89361c-5.45774,4.54948 -7.10687,11.15891 -7.09632,17.88426c0.00648,4.12865 -0.52255,8.60292 -0.01873,12.69454c0.87295,7.08946 5.10695,13.09461 8.66246,19.01922c0,0 0.66339,1.10565 0.24328,2.2053z" fill="#000000" stroke="none" stroke-width="0.5"/><path d="M139.60936,232.25007c-3.55551,-5.92461 -7.80457,-11.95857 -8.67752,-19.04803c-0.50382,-4.09162 0.02621,-8.58579 0.01973,-12.71444c-0.01055,-6.72535 1.65298,-13.35901 7.11072,-17.90849c0.69164,-0.57654 1.75356,-0.47955 2.5519,-0.89597c1.05013,-0.54776 1.90805,-1.42951 2.95709,-1.97937c2.69328,-1.41169 5.99954,-0.7513 8.9132,-0.7513c2.5511,0 5.13947,-0.38374 7.66544,-0.02652c2.75626,0.38978 5.34968,1.73276 8.11917,2.01353c3.68174,0.37326 7.48361,1.65103 10.64029,3.94237c0.77163,0.5601 1.1267,1.54897 1.76732,2.25518c3.14983,3.47236 6.05836,6.72587 8.50071,10.79304c1.4034,2.33703 3.29063,4.53082 3.94833,7.17632c1.32302,5.32167 -0.78606,10.74248 -2.83996,15.34489c-0.36029,0.80734 -0.1829,1.85888 -0.72834,2.55465c-1.41707,1.80762 -3.89112,2.46195 -5.78699,3.75858c-2.54754,3.82131 -3.49596,3.60902 -7.34307,5.53257c-2.70694,1.35347 -2.52289,2.35823 -5.31181,2.78257c-2.22001,0.33778 -4.33557,-0.66033 -6.56775,0.16045c-0.88488,0.32537 -1.11637,1.68177 -2.00378,2.0002c-1.99262,0.71502 -4.26291,-0.465 -6.35965,-0.17261c-3.73414,0.52072 -6.54121,1.38024 -10.40309,0.99481c-1.04519,-0.10431 -2.1795,-0.1515 -3.07743,-0.6965c-1.13303,-0.68769 -1.69727,-2.0839 -2.77451,-2.85605c-0.02469,-0.01769 -0.04971,-0.03539 -0.07486,-0.05292c0.42011,-1.09965 -0.24512,-2.20696 -0.24512,-2.20696z" data-paper-data="{&quot;noHover&quot;:false,&quot;origItem&quot;:[&quot;Path&quot;,{&quot;applyMatrix&quot;:true,&quot;segments&quot;:[[[139.88702,234.41906],[0.42011,-1.09965],[0.02515,0.01753]],[[139.96178,234.47189],[-0.02469,-0.01769],[1.07725,0.77215]],[[142.73175,237.3245],[-1.13303,-0.68769],[0.89793,0.545]],[[145.80546,238.01873],[-1.04519,-0.10431],[3.86187,0.38543]],[[156.19454,237.01873],[-3.73414,0.52072],[2.09673,-0.29239]],[[162.54329,237.1903],[-1.99262,0.71502],[0.88741,-0.31843]],[[164.54329,235.1903],[-0.88488,0.32537],[2.23218,-0.82078]],[[171.09954,235.03228],[-2.22001,0.33778],[2.78892,-0.42434]],[[176.40162,232.25421],[-2.70694,1.35347],[3.8471,-1.92355]],[[183.73223,226.73223],[-2.54754,3.82131],[1.89587,-1.29663]],[[189.51323,222.98252],[-1.41707,1.80762],[0.54545,-0.69577]],[[190.23975,220.4317],[-0.36029,0.80734],[2.0539,-4.60241]],[[193.07601,205.11178],[1.32302,5.32167],[-0.6577,-2.6455]],[[189.1308,197.94821],[1.4034,2.33703],[-2.44235,-4.06717]],[[180.64388,187.17475],[3.14983,3.47236],[-0.64062,-0.70622]],[[178.88038,184.92258],[0.77163,0.5601],[-3.15668,-2.29134]],[[168.25819,180.98828],[3.68174,0.37326],[-2.76949,-0.28078]],[[160.15325,178.97584],[2.75626,0.38978],[-2.52596,-0.35721]],[[152.5,179],[2.5511,0],[-2.91366,0]],[[143.59838,179.74579],[2.69328,-1.41169],[-1.04904,0.54986]],[[140.64549,181.72213],[1.05013,-0.54776],[-0.79834,0.41643]],[[138.09632,182.61574],[0.69164,-0.57654],[-5.45774,4.54948]],[[131,200.5],[-0.01055,-6.72535],[0.00648,4.12865]],[[130.98127,213.19454],[-0.50382,-4.09162],[0.87295,7.08946]],[[139.64373,232.21376],[-3.55551,-5.92461],[0,0]]],&quot;closed&quot;:true}]}" fill="#fbff00" stroke="none" stroke-width="0.5"/><path d="M144.82262,217.51289c-0.54185,-0.51976 -1.04747,-1.06877 -1.44924,-1.69856c-2.51383,-3.94051 -1.37337,-9.86459 -1.37337,-14.31433c0,-1.12185 -0.0706,-6.57647 0.29581,-7.17964c2.24882,-3.70193 7.45615,-4.32036 11.20419,-4.32036c7.82998,0 14.91768,3.99267 19.24579,10.40162c1.89976,5.69929 7.36503,9.92304 6.22193,16.49883c-0.70378,4.04857 -3.81788,7.60758 -7.74326,8.99227c-1.04516,0.36868 -2.23139,-0.11074 -3.324,0.07499c-3.19118,0.54245 -6.74742,1.99759 -10.12492,0.92501c-1.2705,-0.40347 -2.17954,-1.55498 -3.37392,-2.14694c-1.01698,-0.50404 -2.24426,-0.53252 -3.21595,-1.11916c-1.85162,-1.11789 -3.26844,-2.85326 -5.07242,-4.0465zM156.86742,220.4077c0.81785,0.51858 1.44515,1.37478 2.35704,1.69957c2.40118,0.85522 5.64844,-0.71211 7.87508,-1.07499c0.88073,-0.14353 1.82231,0.33482 2.676,0.07499c2.0314,-0.61828 3.94603,-2.98698 4.25674,-5.00773c0.7579,-4.929 -4.30418,-9.07949 -5.77807,-13.50117c-1.70296,-2.60774 -4.01841,-4.43209 -6.85259,-5.85259c-3.07062,-1.53901 -7.08772,-2.29743 -10.50117,-1.77807c-0.25657,0.03904 -3.93288,1.25807 -4.19627,1.71193c-0.30856,0.53169 0.25816,1.20676 0.29581,1.82036c0.06125,0.99812 0,2 0,3c0,3.08368 -1.23457,9.07288 0.62663,11.68567c0.01688,0.0237 0.03398,0.04721 0.05128,0.07055c0.60692,0.3616 0.95276,0.93426 1.03752,1.08716c0.5201,0.45936 1.0747,0.88944 1.55234,1.38885c0.43346,0.45321 0.58819,1.27811 1.18894,1.45807c0.97367,0.29166 2.02886,-0.12687 3.04329,-0.1903c0,0 2.5,0 2.5,2.5c0,0.34903 -0.04873,0.64933 -0.13258,0.9077z" fill="#000000" stroke="none" stroke-width="0.5"/><path d="M156.98532,219.5478c0,-2.5 -2.51386,-2.50675 -2.51386,-2.50675c-1.01443,0.06343 -2.07701,0.47568 -3.05068,0.18402c-0.60075,-0.17995 -0.76034,-1.01071 -1.1938,-1.46392c-0.47764,-0.49941 -1.03626,-0.93622 -1.55636,-1.39558c-0.08476,-0.1529 -0.43271,-0.73044 -1.03962,-1.09205c-0.0173,-0.02333 -0.0345,-0.04714 -0.05139,-0.07084c-1.8612,-2.6128 -0.62378,-8.64243 -0.62378,-11.72611c0,-1 0.06552,-2.00858 0.00427,-3.0067c-0.03765,-0.61359 -0.60216,-1.29139 -0.29359,-1.82309c0.26339,-0.45386 3.94887,-1.6811 4.20544,-1.72014c3.41345,-0.51936 7.46347,0.23033 10.53409,1.76933c2.83418,1.4205 5.18508,3.26447 6.88804,5.87221c1.47389,4.42167 6.53993,8.62643 5.78203,13.55544c-0.31072,2.02075 -2.2391,4.40532 -4.2705,5.0236c-0.85368,0.25983 -1.8015,-0.21452 -2.68223,-0.07098c-2.22664,0.36287 -5.50189,1.93607 -7.90306,1.08085c-0.91189,-0.32478 -1.54916,-1.18285 -2.36702,-1.70143c0.08385,-0.25837 0.13204,-0.55884 0.13204,-0.90787z" data-paper-data="{&quot;noHover&quot;:false,&quot;origItem&quot;:[&quot;Path&quot;,{&quot;applyMatrix&quot;:true,&quot;segments&quot;:[[[156.86742,220.4077],[0.08385,-0.25837],[0.81785,0.51858]],[[159.22446,222.10727],[-0.91189,-0.32478],[2.40118,0.85522]],[[167.09954,221.03228],[-2.22664,0.36287],[0.88073,-0.14353]],[[169.77554,221.10727],[-0.85368,0.25983],[2.0314,-0.61828]],[[174.03228,216.09954],[-0.31072,2.02075],[0.7579,-4.929]],[[168.25421,202.59838],[1.47389,4.42167],[-1.70296,-2.60774]],[[161.40162,196.74579],[2.83418,1.4205],[-3.07062,-1.53901]],[[150.90046,194.96772],[3.41345,-0.51936],[-0.25657,0.03904]],[[146.70419,196.67964],[0.26339,-0.45386],[-0.30856,0.53169]],[[147,198.5],[-0.03765,-0.61359],[0.06125,0.99812]],[[147,201.5],[0,-1],[0,3.08368]],[[147.62663,213.18567],[-1.8612,-2.6128],[0.01688,0.0237]],[[147.67791,213.25622],[-0.0173,-0.02333],[0.60692,0.3616]],[[148.71543,214.34339],[-0.08476,-0.1529],[0.5201,0.45936]],[[150.26777,215.73223],[-0.47764,-0.49941],[0.43346,0.45321]],[[151.45671,217.1903],[-0.60075,-0.17995],[0.97367,0.29166]],[[154.5,217],[-1.01443,0.06343],[0,0]],[[157,219.5],[0,-2.5],[0,0.34903]]],&quot;closed&quot;:true}]}" fill="#ef00ff" stroke="none" stroke-width="0.5"/><path d="M243.5,212c-0.17921,0 -0.34557,-0.01285 -0.5,-0.0367c0,1.84557 0,3.69113 0,5.5367c0,0.47263 0.00949,6.14981 -0.03228,6.40046c-0.152,0.91203 -0.71704,1.70956 -0.96772,2.59954c-0.0879,0.31207 -0.3458,0.86937 -0.03822,0.97189c0.5088,0.1696 1.00477,-0.41643 1.53822,-0.47189c0.99464,-0.10342 2,0 3,0c3.65933,0 7.34227,-0.11518 11,0c2.01291,0.06339 3.70358,1.04297 4.6903,-1.45671c0.61769,-1.56479 -0.1903,-3.361 -0.1903,-5.04329c0,-8.33333 0,-16.66667 0,-25c0,-3.02995 0.46917,-6.62012 0.03228,-9.59954c-0.15293,-1.04294 -0.85438,-1.95602 -1,-3c-0.56518,-4.0518 0.76326,-8.45332 0.15802,-12.44375c-0.23279,-1.5348 -2.89249,-1.14477 -4.38927,-1.55641c-0.25131,-0.06911 -6.29464,-2.10192 -6.39941,-2.15451c-1.50533,-0.75572 -2.91821,-1.8927 -4.58729,-2.11916c-2.12488,5.90235 -1.81433,12.602 -1.81433,18.87337c0,2.5332 -0.38445,5.09094 -0.03228,7.59954c0.29308,2.08771 1.65445,3.92033 2,6c0.48466,2.91693 0.03228,6.43611 0.03228,9.40046v3c0,0 0,2.5 -2.5,2.5zM240.0681,195.027c-0.43642,-1.02061 -0.87836,-2.03935 -1.03582,-3.12654c-1.05975,-7.31733 -0.04939,-15.52231 0.98645,-22.70591c0.15553,-1.0786 -0.32008,-2.24326 0.04815,-3.26892c0.71727,-1.99789 2.0792,-3.7015 3.11879,-5.55224c2.01293,-0.0887 4.06296,-0.66091 6.03879,-0.2661c1.30719,0.2612 2.18068,1.55269 3.37392,2.14694c3.97573,1.97998 11.42532,1.27496 13.21132,6.28908c1.4231,3.9953 -0.45488,9.37646 0.15802,13.55625c0.15293,1.04294 0.85438,1.95602 1,3c0.45507,3.26238 0.03228,7.08168 0.03228,10.40046c0,8.33333 0,16.66667 0,25c0,0.89758 0.04804,6.52078 -0.1903,6.95671c-3.5102,6.42017 -10.32444,4.54329 -16.3097,4.54329c-2.33333,0 -4.67132,0.14727 -7,0c-1.49257,-0.09439 -3.32009,0.49415 -4.46178,-0.47189c-4.01102,-3.39394 -1.56287,-5.08701 -1.00594,-8.42856c0.44204,-2.65222 -0.03228,-5.9071 -0.03228,-8.59954c0,-5.66667 0,-11.33333 0,-17c0,0 0,-2.20306 2.0681,-2.473z" fill="#000000" stroke="none" stroke-width="0.5"/><path d="M245.97928,209.5455l-0.00457,-3.00237c0,-2.96435 0.42837,-6.51836 -0.0563,-9.43529c-0.34555,-2.07967 -1.70031,-3.94659 -1.99339,-6.03431c-0.35217,-2.50861 0.04785,-5.08233 0.04785,-7.61553c0,-6.27137 -0.29325,-12.97805 1.83163,-18.8804c1.66908,0.22647 3.08887,1.36255 4.5942,2.11827c0.10477,0.0526 6.15952,2.08604 6.41083,2.15515c1.49678,0.41164 4.16469,0.02376 4.39747,1.55855c0.60524,3.99043 -0.71186,8.39767 -0.14668,12.44948c0.14562,1.04398 0.85395,1.96267 1.00688,3.00561c0.43689,2.97943 -0.01727,6.60253 -0.01727,9.63249c0,8.33333 -0.03117,16.71587 -0.03117,25.04921c0,1.68229 0.80541,3.47946 0.18772,5.04425c-0.98672,2.49968 -2.68499,1.52204 -4.6979,1.45865c-3.65773,-0.11518 -7.35817,-0.00007 -11.0175,-0.00007c-1,0 -2.00985,-0.10445 -3.00448,-0.00103c-0.53345,0.05547 -1.03139,0.6409 -1.54019,0.4713c-0.30758,-0.10253 -0.01851,-0.75484 0.06938,-1.06691c0.25067,-0.88998 0.78432,-1.59257 0.93633,-2.5046c0.04177,-0.25065 0.02832,-5.92931 0.02832,-6.40194c0,-1.84557 -0.0053,-3.69377 -0.0053,-5.53933c0.15443,0.02385 0.36946,-0.05066 0.54866,-0.05066c2.5,0 2.45549,-2.41052 2.45549,-2.41052z" data-paper-data="{&quot;noHover&quot;:false,&quot;origItem&quot;:[&quot;Path&quot;,{&quot;applyMatrix&quot;:true,&quot;segments&quot;:[[[243.5,212],[2.5,0],[-0.17921,0]],[[243,211.9633],[0.15443,0.02385],[0,1.84557]],[[243,217.5],[0,-1.84557],[0,0.47263]],[[242.96772,223.90046],[0.04177,-0.25065],[-0.152,0.91203]],[[242,226.5],[0.25067,-0.88998],[-0.0879,0.31207]],[[241.96178,227.47189],[-0.30758,-0.10253],[0.5088,0.1696]],[[243.5,227],[-0.53345,0.05547],[0.99464,-0.10342]],[[246.5,227],[-1,0],[3.65933,0]],[[257.5,227],[-3.65773,-0.11518],[2.01291,0.06339]],[[262.1903,225.54329],[-0.98672,2.49968],[0.61769,-1.56479]],[[262,220.5],[0,1.68229],[0,-8.33333]],[[262,195.5],[0,8.33333],[0,-3.02995]],[[262.03228,185.90046],[0.43689,2.97943],[-0.15293,-1.04294]],[[261.03228,182.90046],[0.14562,1.04398],[-0.56518,-4.0518]],[[261.1903,170.45671],[0.60524,3.99043],[-0.23279,-1.5348]],[[256.80103,168.9003],[1.49678,0.41164],[-0.25131,-0.06911]],[[250.40162,166.74579],[0.10477,0.0526],[-1.50533,-0.75572]],[[245.81433,164.62663],[1.66908,0.22647],[-2.12488,5.90235]],[[244,183.5],[0,-6.27137],[0,2.5332]],[[243.96772,191.09954],[-0.35217,-2.50861],[0.29308,2.08771]],[[245.96772,197.09954],[-0.34555,-2.07967],[0.48466,2.91693]],[[246,206.5],[0,-2.96435],[0,0]],[246,209.5]],&quot;closed&quot;:true}]}" fill="#fbff00" stroke="none" stroke-width="0.5"/><path d="M249.54412,133c0.45588,0.69608 0.45588,1.5 0.45588,1.5c0,2 0.1225,4.00376 0,6c-0.03765,0.61359 -0.55713,1.26392 -0.29581,1.82036c0.82438,1.75537 3.91685,0.24448 5.75252,0.86995c0.98423,0.33536 1.34477,1.66967 2.27504,2.1342c1.15794,0.57822 2.60551,0.34462 3.77964,0.88921c0.80831,0.37492 1.16059,1.45719 1.98862,1.78629c0.32418,0.12884 0.74839,-0.33404 0.79581,-0.67964c0.14965,-1.09067 -0.46912,-2.21412 -0.2507,-3.29312c0.33413,-1.65065 1.4573,-3.06115 1.86757,-4.69453c0.77133,-3.07079 0.74962,-6.67844 1.08732,-9.8327c0.05709,-0.53328 0.78552,-1.10316 0.47189,-1.53822c-0.31464,-0.43648 -1.08194,0.0375 -1.61356,-0.04553c-3.32516,-0.51932 -5.73995,-1.18907 -8.96332,-1.99056c-1.36466,-0.3418 -2.763,-0.56976 -4.09398,-1.02539c-0.62413,-0.21366 -1.06747,-0.94112 -1.72665,-0.96718c-1.20992,-0.04784 -1.07831,5.25025 -1.07438,5.56688v2c0,0 0,0.80392 -0.45588,1.5zM245.45588,133c-0.45588,-0.69608 -0.45588,-1.5 -0.45588,-1.5v-2c0.03427,-3.61008 0.32667,-9.20724 4.92562,-10.43312c0.08457,-0.02254 7.88155,1.93312 8.17937,2.00743c2.99438,0.74556 6.09366,1.08168 9.03668,2.00944c1.52666,0.48127 3.42014,0.67831 4.38644,1.95447c0.90281,1.19231 0.38479,2.96876 0.47189,4.46178c0.14424,2.47225 -0.64471,4.91125 -1.0258,7.35821c-0.181,1.16218 0.11105,2.38295 -0.17298,3.52433c-0.39826,1.60041 -1.48346,2.98144 -1.84633,4.59023c-0.34571,1.53268 0.63239,3.40735 -0.2507,4.70688c-1.15656,1.70195 -3.16113,3.07502 -5.20419,3.32036c-1.51633,0.18209 -2.59529,-1.6418 -4.01138,-2.21371c-1.34885,-0.54475 -2.91959,-0.45954 -4.22036,-1.11079c-0.75738,-0.37919 -0.91933,-1.60432 -1.72496,-1.8658c-1.19486,-0.38782 -2.59327,0.52877 -3.76775,0.08303c-1.71806,-0.65203 -3.48261,-1.66951 -4.47973,-3.21309c-1.14414,-1.77118 -0.29581,-7.97151 -0.29581,-10.17964c0,0 0,-0.80392 0.45588,-1.5z" fill="#000000" stroke="none" stroke-width="0.5"/><path d="M249.95571,131.4768l0.00444,-2.007c-0.00393,-0.31663 -0.12205,-5.627 1.08787,-5.57916c0.65918,0.02606 1.10585,0.75162 1.72999,0.96528c1.33099,0.45564 2.74424,0.67864 4.1089,1.02044c3.22336,0.80148 5.67985,1.48354 9.00502,2.00286c0.53162,0.08303 1.30253,-0.38733 1.61717,0.04915c0.31363,0.43507 -0.41231,1.00794 -0.46941,1.54122c-0.3377,3.15426 -0.31017,6.81304 -1.0815,9.88384c-0.41028,1.63339 -1.55075,3.06445 -1.88487,4.7151c-0.21841,1.079 0.39476,2.20577 0.24511,3.29643c-0.04742,0.34561 -0.47519,0.81012 -0.79937,0.68128c-0.82803,-0.32909 -1.18544,-1.40957 -1.99375,-1.78449c-1.17412,-0.5446 -2.63995,-0.30921 -3.79789,-0.88743c-0.93026,-0.46453 -1.30615,-1.80269 -2.29038,-2.13805c-1.83568,-0.62547 -4.94908,0.86861 -5.77346,-0.88676c-0.26132,-0.55644 0.25459,-1.21252 0.29225,-1.82611c0.1225,-1.99624 -0.00507,-4.0319 -0.00507,-6.0319c0,0 0.0018,-0.8111 -0.45408,-1.50718c0.45588,-0.69608 0.45906,-1.5075 0.45906,-1.5075z" data-paper-data="{&quot;noHover&quot;:false,&quot;origItem&quot;:[&quot;Path&quot;,{&quot;applyMatrix&quot;:true,&quot;segments&quot;:[[[249.54412,133],[0.45588,-0.69608],[0.45588,0.69608]],[[250,134.5],[0,0],[0,2]],[[250,140.5],[0.1225,-1.99624],[-0.03765,0.61359]],[[249.70419,142.32036],[-0.26132,-0.55644],[0.82438,1.75537]],[[255.45671,143.1903],[-1.83568,-0.62547],[0.98423,0.33536]],[[257.73175,145.3245],[-0.93026,-0.46453],[1.15794,0.57822]],[[261.51138,146.21371],[-1.17412,-0.5446],[0.80831,0.37492]],[[263.5,148],[-0.82803,-0.32909],[0.32418,0.12884]],[[264.29581,147.32036],[-0.04742,0.34561],[0.14965,-1.09067]],[[264.04511,144.02723],[-0.21841,1.079],[0.33413,-1.65065]],[[265.91268,139.3327],[-0.41028,1.63339],[0.77133,-3.07079]],[[267,129.5],[-0.3377,3.15426],[0.05709,-0.53328]],[[267.47189,127.96178],[0.31363,0.43507],[-0.31464,-0.43648]],[[265.85833,127.91625],[0.53162,0.08303],[-3.32516,-0.51932]],[[256.89501,125.92569],[3.22336,0.80148],[-1.36466,-0.3418]],[[252.80103,124.9003],[1.33099,0.45564],[-0.62413,-0.21366]],[[251.07438,123.93312],[0.65918,0.02606],[-1.20992,-0.04784]],[[250,129.5],[-0.00393,-0.31663],[0,0]],[250,131.5]],&quot;closed&quot;:true}]}" fill="#fbff00" stroke="none" stroke-width="0.5"/><path d="M338.71445,211.33973c0.8808,1.56152 1.73579,5.88414 2.18585,7.4613c0.94148,3.29921 2.12189,5.49616 3.76197,8.44415c0.62212,1.11823 0.71476,2.56832 1.60549,3.48705c0.8136,0.83917 2.12596,0.97205 3.18894,1.45807c2.16695,0.73383 4.35122,1.63967 6.14167,3.06391c0.33341,0.26522 0.46754,1.29542 0.78359,1.00972c0.36841,-0.33303 -0.34696,-0.9705 -0.28227,-1.4629c0.17903,-1.36266 0.61918,-2.67945 1,-4c0.52474,-1.81962 0.64498,-3.73265 0.91903,-5.60649c0.35576,-2.43252 1.59146,-4.67311 2.01355,-7.095c0.20373,-1.16897 -0.2719,-2.45029 0.15802,-3.55625c0.34757,-0.89411 1.65869,-1.16066 2.02089,-2.04895c0.36207,-0.88799 -0.25635,-1.94945 -0.01241,-2.87688c0.50223,-1.90942 1.17592,-3.81433 2.21412,-5.49369c0.66451,-1.0749 2.28368,-1.4172 2.7774,-2.58048c0.4908,-1.15638 -0.42541,-2.55909 -0.08303,-3.76775c0.32825,-1.15876 1.61242,-1.86799 2.00228,-3.0075c0.28275,-0.82644 -0.18135,-1.75204 -0.07718,-2.61928c0.19846,-1.65219 0.79431,-3.24141 0.9798,-4.89511c0.16082,-1.4338 -0.2909,-2.92725 0.05471,-4.32804c0.35708,-1.44731 1.63201,-2.55542 2,-4c0.3169,-1.24402 0,-2.56749 0,-3.85124c-0.44488,-0.93554 -0.56663,-2.11141 -1.33464,-2.80662c-1.00036,-0.90553 -2.54209,-0.97064 -3.66489,-1.71899c-0.58713,-0.39132 -0.70017,-1.36289 -1.35465,-1.62652c-0.70655,-0.2846 -1.89427,-0.49449 -2.27934,0.16272c-0.48291,0.8242 0.61071,1.86329 0.53436,2.81548c-0.08445,1.05329 -0.82614,1.96568 -1.00127,3.00773c-0.5892,3.50592 -0.08055,7.75715 -1.0317,11.15925c-0.43176,1.54432 -1.58104,2.81268 -2.08718,4.33425c-1.17088,3.51991 -1.27727,6.98553 -1.87985,10.49877c-0.59697,3.48055 -2.56179,6.75854 -3.32387,10.20864c-0.57298,2.59401 -1.35089,5.15481 -1.67613,7.79136c-0.20405,1.65413 0.49521,3.4086 0,5c-0.03981,0.12792 -0.08374,0.25397 -0.13137,0.37833l0.03536,0.01179l-0.98177,2.94531c-0.31417,1.02156 -1.26534,1.76412 -2.38994,1.76412c-0.88153,0 -1.6565,-0.45626 -2.10163,-1.14551l-1.97849,-2.96774l0.2079,-0.1386l-0.52051,-0.52369c-0.13105,-5.80895 -3.6196,-8.69984 -5.04039,-14.15008c-0.16025,-0.61472 -0.19472,-1.24651 -0.18201,-1.88469c-0.84968,0.38646 -1.7614,0.76864 -2.5933,1.07996c0.51766,0.66189 1.01087,1.33965 1.42288,2.07008zM345,205.5c-0.07734,3.96156 1.89083,7.1342 3.35517,10.53214c0.63118,-3.44445 1.72406,-7.08319 2.76812,-10.30756c1.82111,-5.62413 2.11293,-11.31176 3.9903,-16.93208c0.45679,-1.36749 1.54964,-2.47536 1.95166,-3.85994c0.24904,-0.85772 -0.16151,-1.79237 -0.05308,-2.6789c0.20266,-1.65692 0.77409,-3.25435 0.98137,-4.9107c0.26197,-2.09342 0.64996,-4.1698 1.03875,-6.24341c0.32016,-1.70757 -0.77877,-4.04698 0.53436,-5.18452c6.30046,-5.45798 6.68258,-1.83346 10.36602,0.5362c1.37324,0.88344 3.2189,1.08924 4.33511,2.28101c1.33013,1.42018 1.7769,3.46226 2.66536,5.19338c0,2.04959 0.39629,4.13785 0,6.14876c-0.28823,1.46258 -1.63361,2.55501 -2,4c-0.92765,3.65855 0.13141,8.50967 -1.04268,12.15758c-0.36745,1.14167 -1.66579,1.84 -1.99772,2.9925c-0.39051,1.35591 0.47656,2.93693 -0.08303,4.23225c-0.62115,1.43782 -2.36448,2.10926 -3.2226,3.41952c-1.43152,2.18578 -0.84174,5.19799 -1.79829,7.62943c-0.33914,0.86206 -1.62449,1.09524 -1.97911,1.95105c-0.31248,0.7541 0.2857,1.63751 0.15802,2.44375c-0.18077,1.14142 -0.74792,2.18792 -1.06742,3.29851c-1.34138,4.66272 -1.22039,9.37129 -3,14c-0.60753,1.58016 -0.7519,3.81324 -2.28227,4.5371c-2.96491,1.40238 -8.32185,-3.02481 -11.07474,-3.92637c-1.60369,-0.84731 -3.51505,-1.27303 -4.81106,-2.54193c-1.21682,-1.19138 -1.53584,-3.04233 -2.39451,-4.51295c-3.72848,-6.38566 -4.32091,-13.7368 -8.75367,-19.64359c-0.44388,-0.06637 -0.86993,-0.19222 -1.2637,-0.40704c-4.5424,-2.47807 -4.68012,-9.08397 -6.94698,-12.88986c-0.20266,-0.34026 -0.56159,-0.56107 -0.90104,-0.79407c-0.08298,0.92446 -0.3678,1.8994 -0.49107,2.7852c-0.1422,1.02183 0.16043,2.0781 -0.01355,3.095c-0.35553,2.07799 -1.65683,3.91993 -2,6c-0.18041,1.0935 0.27053,2.27096 -0.07499,3.324c-0.37469,1.14195 -1.66702,1.8452 -2,3c-0.33956,1.17761 0.2432,2.46201 0.07499,3.676c-0.56829,4.10145 -1.81213,7.9826 -3,12c-0.47006,1.58977 0.30667,4.35083 -1.28807,4.80373c-5.04231,1.43199 -7.00841,-3.63499 -7.64736,-6.80373c-0.158,-0.78355 0.50818,-1.68248 0.18025,-2.39843c-0.64361,0.5919 -1.34672,1.14129 -1.94477,1.76574c0,0 -1.76777,1.76777 -3.53553,0c-1.76777,-1.76777 0,-3.53553 0,-3.53553c0.69385,-0.65279 1.61226,-1.14025 2.20822,-1.8651c-0.46376,-1.29153 -0.56779,-2.72638 -0.92172,-4.06167l-0.01873,-3.30546c0,0 0,-2.5 2.5,-2.5c0.77253,0 1.30634,0.23872 1.6752,0.56863c1.51159,-4.57201 2.16916,-9.71209 2.84354,-14.37409c0.39352,-2.72042 1.60628,-5.27961 2,-8c0.56282,-3.88877 -1.09172,-8.65272 0.08854,-12.419c0.35939,-1.14686 1.61994,-1.85982 2,-3c0.31623,-0.94868 -0.31921,-2.05232 0,-3c0.42552,-1.26329 1.51517,-2.20011 2.14694,-3.37392c0.68179,-1.26675 0.47604,-3.33081 1.78401,-3.92973c1.88965,-0.86526 4.15303,0.17356 6.22954,0.26034c0.50481,3.87092 1.02364,8.61483 3.19871,12.06854c1.75591,2.78814 4.79696,4.68793 6.29087,7.6248c0.59709,1.17381 0.33519,2.66179 0.91816,3.84268c0.37807,0.76584 1.37834,1.05968 1.85261,1.76997c0.82778,1.23976 1.13858,2.78338 2,4c1.23745,1.7477 3.01613,3.04119 4.55687,4.52842c1.28765,1.24293 3.70695,1.90809 3.90286,3.68701c0.10321,0.93714 -0.40363,1.77445 -1.09909,2.52699c0.11126,0.4054 0.11126,0.71936 0.11126,0.71936zM308.36732,221.1016c0.84217,0.80016 1.94352,1.40657 2.44238,2.44169c0.37904,0.7865 0.20649,1.70343 0.14724,2.6021c0.47768,-1.21853 0.98038,-2.45651 1.07534,-3.04584c0.15909,-0.98726 -0.1644,-2.01361 0,-3c0.17329,-1.03975 0.84692,-1.95708 1,-3c0.20934,-1.42627 -0.31796,-2.93704 0.07499,-4.324c0.32761,-1.15634 1.61399,-1.86183 2,-3c0.28661,-0.84507 -0.2231,-1.79602 -0.07499,-2.676c0.34992,-2.07894 1.66396,-3.91877 2,-6c0.15435,-0.95596 -0.15368,-1.94685 -0.01355,-2.905c0.70349,-4.81017 1.30297,-4.76542 3.90689,-9.12766c2.17559,1.33545 5.25825,2.72595 6.70101,5.11879c1.48798,2.46784 0.91449,3.8124 2.11916,6.21595c0.48897,0.97559 1.27326,1.77565 1.83434,2.71163c0.33542,0.55953 0.42315,1.30603 0.77761,1.83472c0.67644,-0.02495 1.2514,0.28561 1.58877,0.52331c0.85447,-0.2293 1.79702,-0.93617 2.59679,-1.28098c1.12896,-0.48674 2.14619,-1.23477 3.3,-1.65166c-2.5478,-0.79618 -5.00569,-3.68005 -6.3714,-5.57686c-0.87103,-1.20976 -1.17392,-2.75911 -2,-4c-0.57186,-0.85902 -1.68179,-1.30908 -2.14739,-2.23003c-0.64606,-1.27789 -0.45129,-2.8717 -1.08184,-4.15732c-1.36295,-2.77886 -4.36232,-4.46112 -5.99522,-7.09044c-1.57512,-2.53626 -2.77347,-5.47411 -2.84044,-8.38209c-0.58957,0.84469 -1.34628,1.61253 -1.51426,2.12255c-0.31284,0.94981 0.31623,2.05132 0,3c-0.38006,1.14018 -1.59414,1.86875 -2,3c-0.25643,0.71475 0.09183,1.51634 0.10727,2.27554c0.05977,2.93933 0.39162,6.40095 -0.01873,9.30546c-0.38453,2.72171 -1.61635,5.27817 -2,8c-0.7096,5.03438 -1.48277,10.58322 -3.11428,15.49914c-0.4796,1.44507 -1.53271,2.6544 -2.01942,4.0971c-0.28995,0.85945 -0.36824,1.78674 -0.48025,2.69991z" fill="#000000" stroke="none" stroke-width="0.5"/><path d="M337.24497,209.28777c0.8319,-0.31132 1.83689,-0.72954 2.68658,-1.116c-0.01271,0.63818 0.0195,1.26492 0.17975,1.87965c1.42079,5.45024 4.8852,8.31839 5.01625,14.12734l0.51919,0.52313l-0.20764,0.13871l1.97318,2.96587c0.44514,0.68925 1.2159,1.14449 2.09743,1.14449c1.1246,0 2.07179,-0.74318 2.38597,-1.76474l0.98032,-2.94546l-0.03527,-0.01178c0.04763,-0.12436 0.08304,-0.15077 0.12285,-0.27869c0.49521,-1.5914 -0.2053,-3.34599 -0.00125,-5.00012c0.32524,-2.63655 1.10915,-5.29705 1.68213,-7.89106c0.76208,-3.4501 2.68141,-6.65604 3.27839,-10.13659c0.60258,-3.51324 0.7344,-6.95484 1.90528,-10.47475c0.50614,-1.52156 1.65482,-2.79019 2.08657,-4.33451c0.95115,-3.4021 0.44827,-7.65122 1.03747,-11.15714c0.17513,-1.04206 0.91666,-1.95449 1.00112,-3.00778c0.07635,-0.95219 -0.99026,-2.08755 -0.50735,-2.91175c0.38507,-0.65721 1.57573,-0.44646 2.28228,-0.16186c0.65448,0.26363 0.76999,1.23608 1.35712,1.6274c1.1228,0.74835 2.66992,0.81591 3.67028,1.72144c0.76801,0.69521 0.89309,1.873 1.33797,2.80854c0,1.28375 0.31981,2.6092 0.00291,3.85322c-0.36799,1.44458 -1.6417,2.55361 -1.99878,4.00092c-0.34561,1.40079 0.11067,2.89828 -0.05015,4.33209c-0.18549,1.6537 -0.77622,3.24892 -0.97468,4.90111c-0.10417,0.86724 0.36347,1.79849 0.08072,2.62493c-0.38986,1.13951 -1.67136,1.85461 -1.9996,3.01336c-0.34238,1.20866 0.57696,2.62541 0.08616,3.78179c-0.49373,1.16328 -2.11346,1.51772 -2.77797,2.59262c-1.0382,1.67936 -1.72507,3.61049 -2.22731,5.5199c-0.24394,0.92742 0.36826,1.99439 0.00618,2.88238c-0.36219,0.88829 -1.68264,1.16032 -2.03021,2.05444c-0.42992,1.10596 0.04117,2.38907 -0.16256,3.55804c-0.42209,2.42189 -1.66669,4.66461 -2.02245,7.09712c-0.27405,1.87384 -0.39728,3.78721 -0.92202,5.60683c-0.38082,1.32055 -0.82302,2.63747 -1.00205,4.00013c-0.06469,0.4924 0.651,1.12985 0.28259,1.46289c-0.31604,0.28569 -0.45129,-0.74446 -0.78471,-1.00968c-1.79045,-1.42424 -3.98478,-2.33084 -6.15173,-3.06467c-1.06298,-0.48602 -2.38095,-0.62024 -3.19455,-1.4594c-0.89073,-0.91873 -0.98786,-2.37041 -1.60998,-3.48863c-1.64009,-2.94799 -2.83399,-5.15312 -3.77546,-8.45234c-0.45006,-1.57716 -1.31646,-5.91372 -2.19727,-7.47524c-0.41201,-0.73044 -0.90806,-1.41425 -1.42572,-2.07614z" data-paper-data="{&quot;noHover&quot;:false,&quot;origItem&quot;:[&quot;Path&quot;,{&quot;applyMatrix&quot;:true,&quot;segments&quot;:[[[338.71445,211.33973],[-0.41201,-0.73044],[0.8808,1.56152]],[[340.9003,218.80103],[-0.45006,-1.57716],[0.94148,3.29921]],[[344.66228,227.24518],[-1.64009,-2.94799],[0.62212,1.11823]],[[346.26777,230.73223],[-0.89073,-0.91873],[0.8136,0.83917]],[[349.45671,232.1903],[-1.06298,-0.48602],[2.16695,0.73383]],[[355.59838,235.25421],[-1.79045,-1.42424],[0.33341,0.26522]],[[356.38197,236.26393],[-0.31604,0.28569],[0.36841,-0.33303]],[[356.0997,234.80103],[-0.06469,0.4924],[0.17903,-1.36266]],[[357.0997,230.80103],[-0.38082,1.32055],[0.52474,-1.81962]],[[358.01873,225.19454],[-0.27405,1.87384],[0.35576,-2.43252]],[[360.03228,218.09954],[-0.42209,2.42189],[0.20373,-1.16897]],[[360.1903,214.54329],[-0.42992,1.10596],[0.34757,-0.89411]],[[362.21119,212.49434],[-0.36219,0.88829],[0.36207,-0.88799]],[[362.19878,209.61746],[-0.24394,0.92742],[0.50223,-1.90942]],[[364.4129,204.12377],[-1.0382,1.67936],[0.66451,-1.0749]],[[367.1903,201.54329],[-0.49373,1.16328],[0.4908,-1.15638]],[[367.10727,197.77554],[-0.34238,1.20866],[0.32825,-1.15876]],[[369.10955,194.76804],[-0.38986,1.13951],[0.28275,-0.82644]],[[369.03237,192.14876],[-0.10417,0.86724],[0.19846,-1.65219]],[[370.01217,187.25366],[-0.18549,1.6537],[0.16082,-1.4338]],[[370.06688,182.92562],[-0.34561,1.40079],[0.35708,-1.44731]],[[372.06688,178.92562],[-0.36799,1.44458],[0.3169,-1.24402]],[[372.06688,175.07438],[0,1.28375],[-0.44488,-0.93554]],[[370.73223,172.26777],[0.76801,0.69521],[-1.00036,-0.90553]],[[367.06734,170.54878],[1.1228,0.74835],[-0.58713,-0.39132]],[[365.71269,168.92225],[0.65448,0.26363],[-0.70655,-0.2846]],[[363.43336,169.08497],[0.38507,-0.65721],[-0.48291,0.8242]],[[363.96772,171.90046],[0.07635,-0.95219],[-0.08445,1.05329]],[[362.96645,174.90819],[0.17513,-1.04206],[-0.5892,3.50592]],[[361.93475,186.06744],[0.95115,-3.4021],[-0.43176,1.54432]],[[359.84757,190.40169],[0.50614,-1.52156],[-1.17088,3.51991]],[[357.96772,200.90046],[0.60258,-3.51324],[-0.59697,3.48055]],[[354.64384,211.1091],[0.76208,-3.4501],[-0.57298,2.59401]],[[352.96772,218.90046],[0.32524,-2.63655],[-0.20405,1.65413]],[[352.96772,223.90046],[0.49521,-1.5914],[-0.03981,0.12792]],[[352.83635,224.27878],[0.04763,-0.12436],[0,0]],[352.87171,224.29057],[[351.88994,227.23588],[0,0],[-0.31417,1.02156]],[[349.5,229],[1.1246,0],[-0.88153,0]],[[347.39837,227.85449],[0.44514,0.68925],[0,0]],[345.41987,224.88675],[345.62778,224.74815],[[345.10727,224.22446],[0,0],[-0.13105,-5.80895]],[[340.06688,210.07438],[1.42079,5.45024],[-0.16025,-0.61472]],[[339.88487,208.18969],[-0.01271,0.63818],[-0.84968,0.38646]],[[337.29157,209.26965],[0.8319,-0.31132],[0.51766,0.66189]]],&quot;closed&quot;:true}]}" fill="#fbff00" stroke="none" stroke-width="0.5"/><path d="M308.81703,218.44128c0.48671,-1.44269 1.53811,-2.65341 2.01771,-4.09848c1.63151,-4.91592 2.38694,-10.50207 3.09654,-15.53644c0.38365,-2.72183 1.62943,-5.31386 2.01396,-8.03557c0.41036,-2.9045 0.09313,-6.37665 0.03337,-9.31598c-0.01544,-0.7592 -0.3618,-1.56164 -0.10537,-2.27639c0.40586,-1.13125 1.62607,-1.86196 2.00613,-3.00214c0.31623,-0.94868 -0.31135,-2.05058 0.00148,-3.00039c0.16799,-0.51003 0.92816,-1.27859 1.51773,-2.12327c0.06697,2.90798 1.2689,5.84535 2.84402,8.38161c1.63291,2.62931 4.65335,4.31406 6.01629,7.09291c0.63056,1.28562 0.44712,2.88501 1.09319,4.1629c0.4656,0.92095 1.5876,1.38225 2.15946,2.24126c0.82608,1.24089 1.13855,2.81197 2.00959,4.02173c1.36571,1.89681 3.82289,4.80149 6.37069,5.59767c-1.15381,0.4169 -2.17392,1.17328 -3.30289,1.66002c-0.79977,0.34481 -1.74691,1.0598 -2.60138,1.28911c-0.33736,-0.23769 -0.99306,-0.60723 -1.6695,-0.58228c-0.35446,-0.52869 -0.44537,-1.27052 -0.78079,-1.83005c-0.56108,-0.93598 -1.35019,-1.72533 -1.83916,-2.70092c-1.20467,-2.40355 -0.61457,-3.69391 -2.10255,-6.16175c-1.44276,-2.39284 -4.47856,-3.77507 -6.65415,-5.11052c-2.60392,4.36224 -3.16927,4.27308 -3.87276,9.08324c-0.14013,0.95815 0.16518,1.9295 0.01083,2.88546c-0.33604,2.08123 -1.66074,3.90344 -2.01066,5.98239c-0.14811,0.87997 0.35645,1.82614 0.06985,2.67121c-0.38601,1.13817 -1.67311,1.84309 -2.00072,2.99943c-0.39295,1.38696 0.12938,2.89433 -0.07997,4.3206c-0.15308,1.04292 -0.82791,1.95955 -1.0012,2.9993c-0.1644,0.98639 0.15671,2.01148 -0.00238,2.99874c-0.09497,0.58933 -0.64133,1.91727 -1.11902,3.1358c0.05925,-0.89867 0.22982,-1.81659 -0.14922,-2.6031c-0.49886,-1.03512 -1.60535,-1.64469 -2.44752,-2.44484c0.11201,-0.91317 0.18844,-1.84184 0.47839,-2.70128z" data-paper-data="{&quot;noHover&quot;:false,&quot;origItem&quot;:[&quot;Path&quot;,{&quot;applyMatrix&quot;:true,&quot;segments&quot;:[[[308.36732,221.1016],[0.11201,-0.91317],[0.84217,0.80016]],[[310.8097,223.54329],[-0.49886,-1.03512],[0.37904,0.7865]],[[310.95694,226.14539],[0.05925,-0.89867],[0.47768,-1.21853]],[[312.03228,223.09954],[-0.09497,0.58933],[0.15909,-0.98726]],[[312.03228,220.09954],[-0.1644,0.98639],[0.17329,-1.03975]],[[313.03228,217.09954],[-0.15308,1.04292],[0.20934,-1.42627]],[[313.10727,212.77554],[-0.39295,1.38696],[0.32761,-1.15634]],[[315.10727,209.77554],[-0.38601,1.13817],[0.28661,-0.84507]],[[315.03228,207.09954],[-0.14811,0.87997],[0.34992,-2.07894]],[[317.03228,201.09954],[-0.33604,2.08123],[0.15435,-0.95596]],[[317.01873,198.19454],[-0.14013,0.95815],[0.70349,-4.81017]],[[320.92562,189.06688],[-2.60392,4.36224],[2.17559,1.33545]],[[327.62663,194.18567],[-1.44276,-2.39284],[1.48798,2.46784]],[[329.74579,200.40162],[-1.20467,-2.40355],[0.48897,0.97559]],[[331.58013,203.11325],[-0.56108,-0.93598],[0.33542,0.55953]],[[332.35774,204.94797],[-0.35446,-0.52869],[0.67644,-0.02495]],[[333.9465,205.47128],[-0.33736,-0.23769],[0.85447,-0.2293]],[[336.54329,204.1903],[-0.79977,0.34481],[1.12896,-0.48674]],[[339.84329,202.53864],[-1.15381,0.4169],[-2.5478,-0.79618]],[[333.47189,196.96178],[1.36571,1.89681],[-0.87103,-1.20976]],[[331.47189,192.96178],[0.82608,1.24089],[-0.57186,-0.85902]],[[329.3245,190.73175],[0.4656,0.92095],[-0.64606,-1.27789]],[[328.24266,186.57443],[0.63056,1.28562],[-1.36295,-2.77886]],[[322.24743,179.48399],[1.63291,2.62931],[-1.57512,-2.53626]],[[319.40699,171.10191],[0.06697,2.90798],[-0.58957,0.84469]],[[317.89273,173.22446],[0.16799,-0.51003],[-0.31284,0.94981]],[[317.89273,176.22446],[0.31623,-0.94868],[-0.38006,1.14018]],[[315.89273,179.22446],[0.40586,-1.13125],[-0.25643,0.71475]],[[316,181.5],[-0.01544,-0.7592],[0.05977,2.93933]],[[315.98127,190.80546],[0.41036,-2.9045],[-0.38453,2.72171]],[[313.98127,198.80546],[0.38365,-2.72183],[-0.7096,5.03438]],[[310.86699,214.30459],[1.63151,-4.91592],[-0.4796,1.44507]],[[308.84757,218.40169],[0.48671,-1.44269],[-0.28995,0.85945]]],&quot;closed&quot;:true}]}" fill="#fbff00" stroke="none" stroke-width="0.5"/><path d="M73,283.5c0,2.5 -2.5,2.5 -2.5,2.5l-3.95671,-0.1903c-1.3587,-1.22862 -5.71076,-5.01633 -6.35299,-6.35299c-0.57185,-1.19017 -0.1903,-2.63628 -0.1903,-3.95671c0,-1.32043 -0.38155,-2.76653 0.1903,-3.95671c0.75108,-1.5632 2.31561,-2.58474 3.54193,-3.81106c0.89329,-0.89329 1.64627,-2.05284 2.81106,-2.54193c1.12341,-0.47172 2.44662,0.01127 3.65125,-0.17157c1.25815,-0.19097 2.46608,-0.62939 3.69912,-0.94409c0,0 2.42536,-0.60634 3.0317,1.81902c0.60634,2.42536 -1.81902,3.0317 -1.81902,3.0317c-3.91919,0.9622 -8.08206,0.39838 -10.29664,4.53135c-0.32308,0.60294 0.1903,1.35925 0.1903,2.04329c0,0.68404 -0.51338,1.44035 -0.1903,2.04329c0.81199,1.51538 2.56054,2.31461 3.64701,3.64701l2.04329,-0.1903c0,0 2.5,0 2.5,2.5z" fill="#000000" stroke="none" stroke-width="0.5"/><path d="M92.5,282c-2.5,0 -2.5,-2.5 -2.5,-2.5c0,-5.33333 0,-11.66667 0,-17c0,0 0,-2.5 2.5,-2.5c2.5,0 2.5,2.5 2.5,2.5c0,5.33333 0,10.66667 0,16v1c0,0 0,2.5 -2.5,2.5z" fill="#000000" stroke="none" stroke-width="0.5"/><path d="M101.73223,288.26777c-1.76777,-1.76777 0,-3.53553 0,-3.53553l1.45807,-1.18894c-0.1869,-2.00674 -0.1903,-4.02786 -0.1903,-6.04329c0,0 0,-2.5 2.5,-2.5c2.5,0 2.5,2.5 2.5,2.5c0,2.65299 -0.06285,5.30678 -0.1903,7.95671l-2.54193,2.81106c0,0 -1.76777,1.76777 -3.53553,0z" fill="#000000" stroke="none" stroke-width="0.5"/><path d="M100,262.5c0,-1.38071 1.11929,-2.5 2.5,-2.5c1.38071,0 2.5,1.11929 2.5,2.5c0,1.38071 -1.11929,2.5 -2.5,2.5c-1.38071,0 -2.5,-1.11929 -2.5,-2.5z" fill="#000000" stroke="none" stroke-width="0.5"/><path d="M132.5,277l-0.38675,0.41987c0.94778,-0.59849 1.84178,-1.07639 2.7231,-1.46853c0.02862,-0.55848 0.08895,-1.14333 0.18238,-1.75681c0.27489,-1.80493 0.34889,-3.86762 1.53116,-5.25886c2.65582,-3.12523 10.93792,-4.75343 13.97821,-0.89746c0.92598,1.17441 0.47189,2.96622 0.47189,4.46178c0,1.49555 0.45408,3.28736 -0.47189,4.46178c-2.53368,3.21345 -4.73765,1.52428 -7.62765,2.00594c-0.84452,0.14075 -1.65486,0.26976 -2.43765,0.42159c0.77949,1.65827 2.42461,2.53627 5.15523,3.87462c0,0 2.23607,1.11803 1.11803,3.3541c-1.11803,2.23607 -3.3541,1.11803 -3.3541,1.11803c-3.62703,-1.84365 -6.37015,-3.77897 -7.69167,-6.68392c-0.2697,0.16057 -0.53742,0.33588 -0.80354,0.52798l-2.38675,0.41987c0,0 -0.22477,0 -0.53952,-0.0674c0.18919,0.651 0.14937,1.49308 -0.69271,2.33516c-1.76777,1.76777 -3.53553,0 -3.53553,0l-1,-1c-1.14566,-1.21572 -2.83533,-1.77723 -4.33061,-2.52198c-2.12518,-1.05848 -3.15728,-1.87786 -4.55975,-2.33665c-0.14921,2.05358 -0.40819,4.11018 -0.8354,6.24791l-0.00652,2.85863c0,0 -0.01568,2.49995 -2.51563,2.48428c-2.49995,-0.01568 -2.48428,-2.51563 -2.48428,-2.51563l0.03232,-3.33556c0.49478,-2.47193 0.75064,-4.51733 0.87196,-6.67077c-0.49074,-0.35789 -0.90433,-0.96114 -0.90433,-1.97799c0,-1.08242 0.46866,-1.69619 1.00014,-2.04422c0.01112,-1.74568 0.6723,-3.58129 0.10713,-5.23132c-0.31141,-0.90918 -1.12493,-1.55847 -1.6874,-2.33771c0,0 -1.38675,-2.08013 0.69338,-3.46688c2.08013,-1.38675 3.46688,0.69338 3.46688,0.69338c0.77087,1.22076 1.86313,2.29026 2.3126,3.66229c0.38666,1.18028 0.08746,2.48262 0.10727,3.72446c0.00739,0.46345 0.01314,0.92254 0.01668,1.37804c4.15792,-2.46076 8.27697,-4.69305 11.71556,-8.14581l2.64973,-1.4683c0,0 2.23607,-1.11803 3.3541,1.11803c1.11803,2.23607 -1.11803,3.3541 -1.11803,3.3541l-1.35027,0.5317c-3.26252,3.25061 -7.01192,5.53821 -10.89986,7.84264c0.68007,0.34785 1.40797,0.73107 2.23047,1.14381c1.87272,0.93973 3.84193,1.83723 5.40165,3.23002c0.01049,-2.48423 2.49997,-2.48423 2.49997,-2.48423zM140,274.40685c0.66552,-0.13026 1.36109,-0.2515 2.09955,-0.37457c0.98639,-0.1644 2,-0.00136 3,0c0.45745,0.00062 1.14058,0.40034 1.37235,0.00594c0.27173,-0.4624 -0.47189,-1.0019 -0.47189,-1.53822c0,-0.53633 0.74362,-1.07583 0.47189,-1.53822c-0.23177,-0.3944 -0.91491,0.0098 -1.37235,0.00594c-1.50038,-0.01265 -3.48933,-0.35576 -4.64944,1.0966c-0.49713,0.62237 -0.43155,1.51685 -0.45011,2.34254z" fill="#000000" stroke="none" stroke-width="0.5"/><path d="M170.73607,278.38197c1.11803,2.23607 -1.11803,3.3541 -1.11803,3.3541l-0.88197,-0.11803c-0.66761,1.33175 -2.95191,6.31804 -4.30271,7.46694c-0.06294,0.05354 -0.12671,0.10589 -0.19123,0.15715l0.02565,0.02565l-2,2l-0.54151,-0.54151c-0.73291,0.35358 -1.47748,0.69035 -2.18296,1.08344l-0.67133,-2.3097h-0.87197c0,-5 0,-13 0,-18c0,0 0,-2.5 2.5,-2.5c2.5,0 2.5,2.5 2.5,2.5c0,3.31741 0,6.63482 0,9.95223c0.48531,-0.74388 0.95479,-1.45025 1.26393,-2.07026l3.11803,-2.11803c0,0 2.23607,-1.11803 3.3541,1.11803z" fill="#000000" stroke="none" stroke-width="0.5"/></g></g></svg>