<svg version="1.1" xmlns="http://www.w3.org/2000/svg" xmlns:xlink="http://www.w3.org/1999/xlink" width="91.5" height="42" viewBox="0,0,91.5,42"><g transform="translate(-103,-149.5)"><g data-paper-data="{&quot;isPaintingLayer&quot;:true}" fill-rule="nonzero" stroke-linecap="butt" stroke-linejoin="miter" stroke-miterlimit="10" stroke-dasharray="" stroke-dashoffset="0" style="mix-blend-mode: normal"><path d="M193.5,170.5c0,11.04569 -9.40202,20 -21,20c-11.59798,0 -21,-8.95431 -21,-20c0,-11.04569 9.40202,-20 21,-20c11.59798,0 21,8.95431 21,20z" fill="#efff00" stroke="#000000" stroke-width="2"/><path d="M169.5,180.5v-19h7v19z" fill="#d1e000" stroke="#000000" stroke-width="2"/><path d="M136.2799,165.9948c-0.49484,-0.02506 -1.03822,-0.04074 -1.64165,0.00137c-0.62045,0.0433 -1.23992,0.09757 -1.85872,0.15915l-0.35827,0.17914c1.41153,0.16018 2.88968,-0.01207 4.37416,-0.18515c-0.17086,-0.05263 -0.34306,-0.10371 -0.51551,-0.15452zM141.66823,155.10474c0.63333,-0.21734 1.30412,-0.39385 1.98826,-0.53667c0.94247,-0.73459 1.69142,-1.80347 2.76908,-2.32541c1.47706,-0.71537 3.1469,-0.97429 4.76897,-1.22393c3.1878,-0.4906 7.09607,-0.01873 10.30546,-0.01873c0,0 2.5,0 2.5,2.5c0,2.5 -2.5,2.5 -2.5,2.5c-2.07333,0 -4.3762,-0.18725 -6.5958,-0.18776c0.02039,0.07141 0.03769,0.14413 0.05173,0.218c2.04406,0.2838 2.04406,2.46976 2.04406,2.46976l-1.70943,4.37171c-0.82541,0.25164 -1.73884,0.30673 -2.47624,0.75491c-0.76084,0.46244 -1.18978,1.41337 -1.89159,1.92995c2.87233,0.80449 4.7425,2.62696 2.96999,6.66788c-0.09858,0.22474 -0.21351,0.43834 -0.34209,0.64264l0.02949,0.01966l-1.97849,2.96774c-0.44513,0.68926 -1.2201,1.14551 -2.10163,1.14551c-0.17123,0 -0.33845,-0.01721 -0.5,-0.05001c-0.04079,0.00828 -0.08194,0.01556 -0.12344,0.02183c0.04984,0.13442 0.10296,0.26944 0.15976,0.40505l2.19956,0.73318c1.02156,0.31418 1.76412,1.26534 1.76412,2.38994c0,0.31262 -0.05738,0.61183 -0.16218,0.88769c0.69855,0.44335 1.16218,1.22369 1.16218,2.11231c0,0.17123 -0.01721,0.33845 -0.05001,0.5h2.55001c1.38071,0 2.5,1.11929 2.5,2.5c0,1.38071 -1.11929,2.5 -2.5,2.5h-3c-0.6398,0 -1.27962,0.00004 -1.91942,0.00011c-1.53848,0.25178 -3.09127,0.28844 -4.64745,0.00101c-7.14437,0.00207 -14.28877,0.00571 -21.43313,-0.00113c-4.94808,-0.00473 -8.8719,-0.79975 -13.64666,-2.08508c-1.3446,-0.36195 -2.83009,-0.34742 -4.05231,-1.01462c-0.02856,-0.01559 -0.05703,-0.03133 -0.08539,-0.04722l-0.00621,0.01863l-2.94531,-0.98177c-1.02156,-0.31418 -1.76412,-1.26534 -1.76412,-2.38994c0,-1.38071 1.11929,-2.5 2.5,-2.5h3c1.56743,0 3.13832,0.03547 4.70917,0.0627c-0.98051,-0.3452 -1.9285,-0.77019 -2.8654,-1.24444l-4.28865,-0.85773c-1.16847,-0.20987 -2.05513,-1.23165 -2.05513,-2.46053c0,-1.38071 1.11929,-2.5 2.5,-2.5h2.69594c3.79206,-1.25734 7.13678,-0.88337 11.0555,-1.5872c0.43627,-0.07836 1.33655,-0.4845 2.3683,-0.82905c-0.73314,-0.17496 -1.46429,-0.35583 -2.07644,-0.77406c-0.04929,-0.03367 -0.09835,-0.06764 -0.1472,-0.10187l-0.01412,0.02824l-3.95155,-1.97578c-0.84561,-0.40086 -1.43041,-1.26228 -1.43041,-2.26029c0,-1.35913 1.08457,-2.46495 2.43545,-2.49919l2.83476,-0.08347c1.11395,-0.50824 8.28335,-3.78443 8.61695,-3.86434c0.19334,-0.04631 0.42279,-0.03048 0.66826,0.01833c-0.34737,-0.42935 -0.55543,-0.97603 -0.55543,-1.57133c0,-1.38071 1.11929,-2.5 2.5,-2.5h3c1.66666,0 3.33354,-0.02604 5,0c0.45684,0.00714 0.92709,0.10367 1.39341,0.18122c0.2585,-0.02982 0.51663,-0.0551 0.77482,-0.07648zM150.02734,159c-1.12352,0.6743 -2.19189,1.45076 -2.96233,2.32298c0.52557,0.0414 1.04633,0.05416 1.47828,-0.13268c0.74931,-0.32411 0.94007,-1.40066 1.64238,-1.81692c0.24415,-0.1447 0.49898,-0.26657 0.76085,-0.37338zM141.52905,161.25072c0.04534,-0.14674 0.09439,-0.29506 0.14722,-0.44503c-0.0992,0.10691 -0.19289,0.21924 -0.28232,0.33575c0.02116,0.01568 0.04208,0.03196 0.06276,0.04887c0.02437,0.01992 0.04848,0.04006 0.07234,0.06042zM120.76481,183.9264c0.09628,0.00982 0.19449,0.01934 0.29478,0.02859c0.02438,-0.10967 0.05598,-0.21663 0.09425,-0.32036zM139.1385,170.59033c0.23525,0.15398 0.46404,0.32108 0.68403,0.49997c0.18886,-0.11059 0.38066,-0.21644 0.57328,-0.31795c-0.39677,-0.09569 -0.81817,-0.15314 -1.25731,-0.18202zM130.41932,173.66034c0.33059,-0.01639 0.66077,-0.03026 0.99016,-0.04131c-0.13622,-0.09632 -0.27083,-0.1951 -0.40388,-0.29586c-0.17932,0.12673 -0.37618,0.23794 -0.58628,0.33718zM135.02723,178.7772c0.65516,0.1821 1.29722,0.37089 1.91726,0.54897c0.01234,-0.16045 0.02877,-0.32172 0.04766,-0.48354c-0.63662,-0.04978 -1.29558,-0.06748 -1.96492,-0.06543zM136.22107,184.3182c-0.10791,-0.03199 -0.21663,-0.06506 -0.32608,-0.09896c-0.01051,0.03506 -0.02178,0.0698 -0.03377,0.1042c0.11995,-0.00168 0.23989,-0.00343 0.35985,-0.00523zM145.32196,182.22555c-0.37136,-0.18218 -0.74061,-0.37684 -1.10881,-0.57719c0.19989,0.17648 0.37519,0.38688 0.5461,0.60415c0.18431,0.01777 0.37252,0.0032 0.56271,-0.02696z" fill="#ffb900" stroke="none" stroke-width="0.5"/><path d="M143.1007,169.20477c-0.00902,-0.03224 -0.01771,-0.06505 -0.02606,-0.09843c-0.01206,-0.04824 -0.02292,-0.09577 -0.03263,-0.14258c-1.04306,0.16244 -2.2354,0.18029 -3.79315,0.02359c-0.07762,-0.00781 -0.15531,-0.01598 -0.23305,-0.02453l2.26185,1.13092c0.16638,-0.21629 0.37616,-0.39558 0.63737,-0.5271c0.38377,-0.19322 0.77993,-0.30789 1.18568,-0.36187zM154.97788,167.16817c-0.12055,0.44927 -1.77787,7.05063 -2.35125,7.64616c-0.13357,0.13873 -0.27341,0.26959 -0.41857,0.39373l0.05971,0.05971l-1.24484,1.24484l2.75839,1.88198c0.67587,0.44751 1.12159,1.2147 1.12159,2.08599c0,1.38071 -1.11929,2.5 -2.5,2.5c-0.18573,0 -0.36673,-0.02025 -0.54091,-0.05867l-4.85228,-0.97046l0.00895,-0.04473l-0.16033,0.00953c-3.5429,-1.17524 -6.30283,-2.16179 -9.45671,-4.17046c-1.43158,-0.91175 -4.14316,-0.98499 -4.33474,-2.67141c-0.19174,-1.68776 -0.23658,-2.96724 -0.17099,-3.91907c-1.11636,-0.6687 -2.16299,-1.38906 -2.63195,-2.53728c-4.13039,-10.11296 5.88685,-4.97812 9.48721,-4.60539c1.11024,0.11494 2.24943,-0.35512 3.34798,-0.21193c0.23442,-0.80623 0.86393,-1.44429 1.665,-1.69065l2.70791,-0.90264c1.93335,-1.28049 4.04261,-2.33207 6.2374,-3.07913c0,0 2.37171,-0.79057 3.16228,1.58114c0.79057,2.37171 -1.58114,3.16228 -1.58114,3.16228c-0.77327,0.25106 -1.52903,0.55805 -2.26652,0.90743l1.55607,2.33411l-0.3624,0.2416zM148.71523,170.47574c0.04633,-0.13769 0.10077,-0.27626 0.16142,-0.41595l-0.73509,0.22968c0.19159,0.06439 0.38289,0.12698 0.57368,0.18627z" fill="#ff0000" stroke="none" stroke-width="0.5"/></g></g></svg>